PathFileType	4	(x/y/z)	S04_M20_T19.trc
DataRate	CameraRate	NumFrames	NumMarkers	Units	OrigDataRate	OrigDataStartFrame	OrigNumFrames
240	240	5	51	mm	240	333	532
Frame#	Time	Sternum			R.Acromium			L.Acromium			Top.Head			R.ASIS			L.ASIS			R.PSIS			L.PSIS			R.Great.Tro			L.Great.Tro			R.Iliac.Crest			L.Iliac.Crest			V.Sacral			R.Thigh.Upper.Post			R.Thigh.Lower.Ant			R.Thigh.Lower.Post			R.Thigh.Upper.Ant			R.Knee.Lat			R.Knee.Med			R.Shank.Upper.Post			R.Shank.Lower.Ant			R.Shank.Lower.Post			R.Shank.Upper.Ant			R.Ankle.Lat			R.Ankle.Med			R.Heel.Upper			R.Heel.Med			R.Heel.Lat			R.Toe.Lat			R.Toe.Med			R.Toe.Tip			L.Thigh.Upper.Post			L.Thigh.Lower.Ant			L.Thigh.Lower.Post			L.Thigh.Upper.Ant			L.Knee.Lat			L.Knee.Med			L.Shank.Upper.Post			L.Shank.Lower.Ant			L.Shank.Lower.Post			L.Shank.Upper.Ant			L.Ankle.Lat			L.Ankle.Med			L.Heel.Upper			L.Heel.Med			L.Heel.Lat			L.Toe.Lat			L.Toe.Med			L.Toe.Tip			Cervical.Spine			Back			
		X1	Y1	Z1	X2	Y2	Z2	X3	Y3	Z3	X4	Y4	Z4	X5	Y5	Z5	X6	Y6	Z6	X7	Y7	Z7	X8	Y8	Z8	X9	Y9	Z9	X10	Y10	Z10	X11	Y11	Z11	X12	Y12	Z12	X13	Y13	Z13	X14	Y14	Z14	X15	Y15	Z15	X16	Y16	Z16	X17	Y17	Z17	X18	Y18	Z18	X19	Y19	Z19	X20	Y20	Z20	X21	Y21	Z21	X22	Y22	Z22	X23	Y23	Z23	X24	Y24	Z24	X25	Y25	Z25	X26	Y26	Z26	X27	Y27	Z27	X28	Y28	Z28	X29	Y29	Z29	X30	Y30	Z30	X31	Y31	Z31	X32	Y32	Z32	X33	Y33	Z33	X34	Y34	Z34	X35	Y35	Z35	X36	Y36	Z36	X37	Y37	Z37	X38	Y38	Z38	X39	Y39	Z39	X40	Y40	Z40	X41	Y41	Z41	X42	Y42	Z42	X43	Y43	Z43	X44	Y44	Z44	X45	Y45	Z45	X46	Y46	Z46	X47	Y47	Z47	X48	Y48	Z48	X49	Y49	Z49	X50	Y50	Z50	X51	Y51	Z51	

333	1.3833	982.37	1234.6	339.72	851.37	1465.7	507.74	862.94	1452	156.15	884.74	1790.9	317.63	925.92	956.26	487.51	974.73	967.01	237.32	738.29	1000.4	341.62	762.03	999.9	263.34	813.74	889.37	528.06	878.03	885.47	147.84	837.19	1047.9	510.52	877.57	1048.2	166.62	728.3	958.71	300.2	733.92	649.7	505.99	781.84	547.96	476.09	707.38	563.78	490.57	822.57	648.88	500.87	703.25	491.22	481.57	689.47	495.44	344.29	550.84	305.54	462.49	589.04	210.99	417.02	526.5	241.75	441.73	609.7	276.28	445.93	500.19	130.24	415.74	521.19	141.16	326.74	427.34	112.62	359.77	428.85	79.157	331.05	425.46	82.301	396.15	590.84	42.513	444.32	624.25	37.21	324.69	690.42	43.323	371.86	950.67	648	162.79	1066.3	598.95	174.03	998.06	573.7	179.44	1015.4	670.62	152.85	1076.3	512.54	187.04	1083.3	502.67	317.48	1092.8	314.04	193.15	1197.8	277.82	188.72	1139.6	251.88	199.43	1151.9	339.07	181.29	1270.4	138.79	205.73	1272.2	153.22	299.12	1229.6	65.377	258.45	1252.9	51.347	293.03	1248.3	45.321	230.49	1397	149.2	180.16	1421.1	182.35	291.69	1453.6	224.82	240.31	809.91	1512.8	334.74	725.24	1256.8	307.38
334	1.3875	988.42	1233.8	339.21	857.4	1465.1	507.13	869	1451.2	155.53	890.69	1790.2	316.87	931.63	955.54	487.31	981.05	966.33	237.23	744.32	999.69	340.84	768.26	999.18	262.62	819.17	888.81	527.54	884.66	884.9	147.41	842.96	1047.2	510.02	883.88	1047.3	166.22	734.45	957.98	299.41	738.74	649.48	505.66	786.42	547.55	476	711.96	563.63	490.26	827.4	648.37	500.71	707.59	491.02	481.36	694.22	495.14	344.06	553.68	306.54	462.32	591	211.66	416.94	528.75	242.97	441.59	612.27	276.76	445.82	501.41	131.65	415.69	522.55	142.37	326.72	428.43	114.8	359.73	429.63	81.346	330.99	426.26	84.423	396.06	591.14	42.742	444.32	624.44	37.264	324.69	690.63	43.12	371.82	957.53	647.54	162.37	1073.2	598.67	174.01	1004.9	573.33	179.06	1022.3	670.31	152.69	1083	512.09	186.81	1089.8	502.13	317.21	1098.5	313.46	192.72	1203.3	276.69	188.52	1144.9	251.06	199.06	1157.8	338.17	181.04	1275	137.4	205.53	1276.8	151.72	298.96	1234	64.09	258.18	1257.3	49.962	292.73	1252.6	44.058	230.1	1401.5	147.72	179.95	1425.6	180.66	291.52	1458.2	223.18	240.19	815.94	1512.1	334.1	731.28	1256.1	306.82
335	1.3917	994.52	1233.1	338.68	863.47	1464.5	506.5	875.08	1450.4	154.9	896.67	1789.5	316.11	937.39	954.84	487.09	987.41	965.69	237.13	750.42	998.98	340.05	774.54	998.49	261.9	824.66	888.26	527.01	891.35	884.37	146.97	848.79	1046.6	509.51	890.24	1046.5	165.81	740.66	957.28	298.62	743.66	649.26	505.31	791.11	547.14	475.92	716.64	563.48	489.95	832.34	647.88	500.55	712.05	490.81	481.14	699.09	494.84	343.84	556.61	307.57	462.16	593.03	212.36	416.88	531.08	244.24	441.44	614.91	277.27	445.71	502.7	133.11	415.66	523.99	143.61	326.72	429.59	117.06	359.71	430.47	83.626	330.92	427.12	86.623	395.97	591.46	42.983	444.32	624.64	37.323	324.7	690.84	42.929	371.77	964.44	647.11	161.94	1080.1	598.43	173.97	1011.8	573	178.68	1029.3	670.05	152.52	1089.8	511.66	186.59	1096.3	501.63	316.91	1104.1	312.89	192.29	1208.6	275.46	188.34	1150	250.2	198.7	1163.5	337.23	180.8	1279.3	135.86	205.36	1281.1	150.06	298.83	1238	62.754	257.9	1261.2	48.496	292.43	1256.4	42.712	229.73	1405.6	145.95	179.81	1429.9	178.64	291.42	1462.6	221.17	240.15	821.99	1511.4	333.45	737.36	1255.4	306.26
336	1.3958	1000.6	1232.4	338.14	869.56	1463.8	505.86	881.18	1449.7	154.24	902.65	1788.8	315.35	943.21	954.15	486.86	993.84	965.1	237.01	756.57	998.29	339.26	780.89	997.83	261.18	830.24	887.71	526.47	898.1	883.89	146.52	854.67	1046	508.99	896.65	1045.7	165.4	746.93	956.6	297.82	748.68	649.03	504.96	795.9	546.73	475.84	721.43	563.31	489.65	837.37	647.39	500.38	716.62	490.6	480.93	704.09	494.52	343.63	559.63	308.64	462	595.13	213.1	416.83	533.49	245.55	441.28	617.64	277.8	445.61	504.05	134.62	415.63	525.49	144.9	326.72	430.83	119.4	359.68	431.37	85.998	330.86	428.03	88.904	395.88	591.79	43.234	444.32	624.83	37.386	324.7	691.04	42.75	371.72	971.41	646.73	161.51	1087.1	598.23	173.92	1018.8	572.71	178.3	1036.3	669.83	152.34	1096.7	511.26	186.37	1102.9	501.15	316.6	1109.5	312.35	191.86	1213.8	274.15	188.18	1155	249.32	198.33	1169.2	336.24	180.59	1283.3	134.18	205.21	1285	148.27	298.72	1241.7	61.399	257.64	1264.7	46.978	292.14	1259.8	41.309	229.37	1409.5	143.91	179.73	1433.9	176.31	291.39	1466.7	218.82	240.19	828.06	1510.7	332.78	743.47	1254.7	305.68
337	1.4	1006.8	1231.8	337.57	875.69	1463.3	505.2	887.28	1449	153.57	908.65	1788.2	314.58	949.1	953.48	486.62	1000.3	964.55	236.88	762.78	997.62	338.47	787.29	997.21	260.46	835.89	887.16	525.92	904.92	883.45	146.06	860.62	1045.4	508.46	903.13	1045	164.98	753.26	955.95	297.02	753.8	648.8	504.59	800.82	546.32	475.76	726.33	563.14	489.34	842.5	646.9	500.21	721.31	490.37	480.72	709.2	494.18	343.43	562.75	309.75	461.84	597.3	213.88	416.8	536	246.9	441.13	620.45	278.36	445.52	505.47	136.18	415.62	527.08	146.23	326.75	432.15	121.82	359.67	432.35	88.464	330.8	429.01	91.267	395.78	592.14	43.496	444.32	625.03	37.453	324.71	691.24	42.582	371.67	978.41	646.38	161.07	1094.1	598.05	173.84	1025.8	572.45	177.92	1043.3	669.64	152.13	1103.5	510.87	186.15	1109.5	500.7	316.27	1114.9	311.82	191.42	1218.8	272.77	188.04	1159.7	248.41	197.98	1174.7	335.23	180.39	1287	132.41	205.08	1288.7	146.36	298.63	1244.9	60.056	257.38	1267.8	45.44	291.86	1262.8	39.879	229.04	1413.1	141.63	179.7	1437.6	173.7	291.42	1470.6	216.14	240.3	834.14	1510.1	332.1	749.63	1254.1	305.1
